<mxfile host="Electron" agent="Mozilla/5.0 (Macintosh; Intel Mac OS X 10_15_7) AppleWebKit/537.36 (KHTML, like Gecko) draw.io/24.7.8 Chrome/128.0.6613.36 Electron/32.0.1 Safari/537.36" version="24.7.8">
  <diagram name="第 1 页" id="hPsJAPpxEtgmPunazsaK">
    <mxGraphModel dx="954" dy="727" grid="1" gridSize="10" guides="1" tooltips="1" connect="1" arrows="1" fold="1" page="1" pageScale="1" pageWidth="827" pageHeight="1169" math="0" shadow="0">
      <root>
        <mxCell id="0" />
        <mxCell id="1" parent="0" />
        <mxCell id="32o5gjudBVpEV3CkoVwJ-1" value="2" style="whiteSpace=wrap;html=1;aspect=fixed;" vertex="1" parent="1">
          <mxGeometry x="240" y="199" width="40" height="40" as="geometry" />
        </mxCell>
        <mxCell id="32o5gjudBVpEV3CkoVwJ-2" value="3" style="whiteSpace=wrap;html=1;aspect=fixed;" vertex="1" parent="1">
          <mxGeometry x="280" y="199" width="40" height="40" as="geometry" />
        </mxCell>
        <mxCell id="32o5gjudBVpEV3CkoVwJ-3" value="1" style="whiteSpace=wrap;html=1;aspect=fixed;" vertex="1" parent="1">
          <mxGeometry x="320" y="199" width="40" height="40" as="geometry" />
        </mxCell>
        <mxCell id="32o5gjudBVpEV3CkoVwJ-4" value="1" style="whiteSpace=wrap;html=1;aspect=fixed;" vertex="1" parent="1">
          <mxGeometry x="360" y="199" width="40" height="40" as="geometry" />
        </mxCell>
        <mxCell id="32o5gjudBVpEV3CkoVwJ-5" value="4" style="whiteSpace=wrap;html=1;aspect=fixed;" vertex="1" parent="1">
          <mxGeometry x="400" y="199" width="40" height="40" as="geometry" />
        </mxCell>
        <mxCell id="32o5gjudBVpEV3CkoVwJ-6" value="" style="rounded=0;whiteSpace=wrap;html=1;strokeColor=none;fillColor=#FF0000;" vertex="1" parent="1">
          <mxGeometry x="240" y="260" width="120" height="20" as="geometry" />
        </mxCell>
        <mxCell id="32o5gjudBVpEV3CkoVwJ-7" value="" style="rounded=0;whiteSpace=wrap;html=1;strokeColor=none;fillColor=#FF0000;" vertex="1" parent="1">
          <mxGeometry x="280" y="329" width="160" height="20" as="geometry" />
        </mxCell>
        <mxCell id="32o5gjudBVpEV3CkoVwJ-8" value="0" style="text;html=1;align=center;verticalAlign=middle;resizable=0;points=[];autosize=1;strokeColor=none;fillColor=none;" vertex="1" parent="1">
          <mxGeometry x="245" y="164" width="30" height="30" as="geometry" />
        </mxCell>
        <mxCell id="32o5gjudBVpEV3CkoVwJ-9" value="1" style="text;html=1;align=center;verticalAlign=middle;resizable=0;points=[];autosize=1;strokeColor=none;fillColor=none;" vertex="1" parent="1">
          <mxGeometry x="285" y="164" width="30" height="30" as="geometry" />
        </mxCell>
        <mxCell id="32o5gjudBVpEV3CkoVwJ-10" value="2" style="text;html=1;align=center;verticalAlign=middle;resizable=0;points=[];autosize=1;strokeColor=none;fillColor=none;" vertex="1" parent="1">
          <mxGeometry x="325" y="164" width="30" height="30" as="geometry" />
        </mxCell>
        <mxCell id="32o5gjudBVpEV3CkoVwJ-11" value="3" style="text;html=1;align=center;verticalAlign=middle;resizable=0;points=[];autosize=1;strokeColor=none;fillColor=none;" vertex="1" parent="1">
          <mxGeometry x="365" y="164" width="30" height="30" as="geometry" />
        </mxCell>
        <mxCell id="32o5gjudBVpEV3CkoVwJ-12" value="4" style="text;html=1;align=center;verticalAlign=middle;resizable=0;points=[];autosize=1;strokeColor=none;fillColor=none;" vertex="1" parent="1">
          <mxGeometry x="405" y="164" width="30" height="30" as="geometry" />
        </mxCell>
        <mxCell id="32o5gjudBVpEV3CkoVwJ-13" value="下标 i：" style="text;html=1;align=center;verticalAlign=middle;resizable=0;points=[];autosize=1;strokeColor=none;fillColor=none;" vertex="1" parent="1">
          <mxGeometry x="160" y="164" width="70" height="30" as="geometry" />
        </mxCell>
        <mxCell id="32o5gjudBVpEV3CkoVwJ-14" value="第一步可覆盖范围" style="text;html=1;align=center;verticalAlign=middle;resizable=0;points=[];autosize=1;strokeColor=none;fillColor=none;" vertex="1" parent="1">
          <mxGeometry x="240" y="280" width="120" height="30" as="geometry" />
        </mxCell>
        <mxCell id="32o5gjudBVpEV3CkoVwJ-15" value="第二步可覆盖范围" style="text;html=1;align=center;verticalAlign=middle;resizable=0;points=[];autosize=1;strokeColor=none;fillColor=none;" vertex="1" parent="1">
          <mxGeometry x="300" y="349" width="120" height="30" as="geometry" />
        </mxCell>
        <mxCell id="32o5gjudBVpEV3CkoVwJ-16" value="移动下标不等于当前覆盖最远距离下标&lt;div&gt;result 也就是 2&lt;/div&gt;" style="text;html=1;align=center;verticalAlign=middle;resizable=0;points=[];autosize=1;strokeColor=none;fillColor=none;fontColor=#FF0000;" vertex="1" parent="1">
          <mxGeometry x="245" y="379" width="230" height="40" as="geometry" />
        </mxCell>
        <mxCell id="32o5gjudBVpEV3CkoVwJ-17" style="edgeStyle=orthogonalEdgeStyle;rounded=0;orthogonalLoop=1;jettySize=auto;html=1;" edge="1" parent="1" source="32o5gjudBVpEV3CkoVwJ-18">
          <mxGeometry relative="1" as="geometry">
            <mxPoint x="380" y="160" as="targetPoint" />
          </mxGeometry>
        </mxCell>
        <mxCell id="32o5gjudBVpEV3CkoVwJ-18" value="&lt;div&gt;&lt;span style=&quot;background-color: initial;&quot;&gt;移动下标指向&lt;/span&gt;&lt;br&gt;&lt;/div&gt;&lt;div&gt;nums.length - 2&lt;/div&gt;" style="text;html=1;align=center;verticalAlign=middle;resizable=0;points=[];autosize=1;strokeColor=none;fillColor=none;" vertex="1" parent="1">
          <mxGeometry x="325" y="50" width="110" height="40" as="geometry" />
        </mxCell>
      </root>
    </mxGraphModel>
  </diagram>
</mxfile>
